<?xml version="1.0" encoding="UTF-8" standalone="no"?>
<svg
   width="277.6546"
   height="64"
   viewBox="0 0 104.12048 24"
   fill="#000000"
   version="1.1"
   id="svg15"
   sodipodi:docname="logo.svg"
   inkscape:version="1.2.2 (b0a8486541, 2022-12-01)"
   xmlns:inkscape="http://www.inkscape.org/namespaces/inkscape"
   xmlns:sodipodi="http://sodipodi.sourceforge.net/DTD/sodipodi-0.dtd"
   xmlns="http://www.w3.org/2000/svg"
   xmlns:svg="http://www.w3.org/2000/svg">
  <defs
     id="defs19" />
  <sodipodi:namedview
     id="namedview17"
     pagecolor="#ffffff"
     bordercolor="#111111"
     borderopacity="1"
     inkscape:showpageshadow="0"
     inkscape:pageopacity="0"
     inkscape:pagecheckerboard="1"
     inkscape:deskcolor="#d1d1d1"
     showgrid="false"
     showguides="true"
     inkscape:zoom="2.8367135"
     inkscape:cx="65.040053"
     inkscape:cy="85.309989"
     inkscape:window-width="2544"
     inkscape:window-height="1387"
     inkscape:window-x="2568"
     inkscape:window-y="8"
     inkscape:window-maximized="0"
     inkscape:current-layer="svg15">
    <sodipodi:guide
       position="9.8859592,11.994107"
       orientation="0,-1"
       id="guide285"
       inkscape:locked="false" />
  </sodipodi:namedview>
  <g
     id="SVGRepo_bgCarrier"
     stroke-width="0"
     style="fill:#5ea4e2;fill-opacity:1" />
  <g
     id="SVGRepo_tracerCarrier"
     stroke-linecap="round"
     stroke-linejoin="round"
     style="fill:#5ea4e2;fill-opacity:1" />
  <g
     id="SVGRepo_iconCarrier"
     style="fill:#5ea4e2;fill-opacity:1">
    <g
       fill="#ffffff"
       fill-rule="evenodd"
       id="g12"
       style="fill:#5ea4e2;fill-opacity:1">
      <path
         d="M 13,0 H 3 A 3.009,3.009 0 0 0 0,3 v 13.99 a 3.009,3.009 0 0 0 3,3 h 10 a 3.009,3.009 0 0 0 3,-3 V 3 A 3.009,3.009 0 0 0 13,0 Z m 1,16.99 a 1.016,1.016 0 0 1 -1,1 H 3 a 1.016,1.016 0 0 1 -1,-1 V 3 A 1.016,1.016 0 0 1 3,2 h 10 c 0.549,0.009 0.991,0.451 1,1 z"
         id="path4"
         style="fill:#5ea4e2;fill-opacity:1" />
      <path
         d="m 20,7 v 14 a 3.009,3.009 0 0 1 -3,3 H 5 a 1,1 0 0 1 0,-2 h 12 a 1.016,1.016 0 0 0 1,-1 V 7 a 1,1 0 0 1 2,0 z"
         id="path6"
         style="fill:#5ea4e2;fill-opacity:1" />
      <circle
         cx="8"
         cy="15"
         r="1"
         id="circle8"
         style="fill:#5ea4e2;fill-opacity:1" />
      <path
         d="M 12,8 A 3.992,3.992 0 0 1 9,11.87 V 12 A 1,1 0 0 1 7,12 V 11 A 1,1 0 0 1 8,10 2,2 0 1 0 6,8 1,1 0 1 1 4,8 4,4 0 1 1 12,8 Z"
         id="path10"
         style="fill:#5ea4e2;fill-opacity:1" />
    </g>
  </g>
  <text
     xml:space="preserve"
     style="font-size:15px;line-height:1.25;font-family:NokioSans-Medium;-inkscape-font-specification:NokioSans-Medium;fill:#5ea4e2;stroke-width:0.375;fill-opacity:1"
     x="23.165562"
     y="15.170552"
     id="text179"><tspan
       sodipodi:role="line"
       id="tspan177"
       style="fill:#5ea4e2;stroke-width:0.375;fill-opacity:1"
       x="23.165562"
       y="15.170552">reveal-quiz</tspan></text>
</svg>
